<mxfile host="app.diagrams.net" agent="Mozilla/5.0 (Windows NT 10.0; Win64; x64) AppleWebKit/537.36 (KHTML, like Gecko) Chrome/133.0.0.0 Safari/537.36" version="26.0.13">
  <diagram id="C5RBs43oDa-KdzZeNtuy" name="Page-1">
    <mxGraphModel dx="1400" dy="891" grid="1" gridSize="10" guides="1" tooltips="1" connect="1" arrows="1" fold="1" page="1" pageScale="1" pageWidth="827" pageHeight="1169" math="0" shadow="0">
      <root>
        <mxCell id="WIyWlLk6GJQsqaUBKTNV-0" />
        <mxCell id="WIyWlLk6GJQsqaUBKTNV-1" parent="WIyWlLk6GJQsqaUBKTNV-0" />
        <mxCell id="RBFZopENzZqXc9jWvcYU-9" style="edgeStyle=orthogonalEdgeStyle;rounded=0;orthogonalLoop=1;jettySize=auto;html=1;exitX=0.5;exitY=1;exitDx=0;exitDy=0;entryX=0.5;entryY=0;entryDx=0;entryDy=0;" edge="1" parent="WIyWlLk6GJQsqaUBKTNV-1" source="RBFZopENzZqXc9jWvcYU-0" target="RBFZopENzZqXc9jWvcYU-5">
          <mxGeometry relative="1" as="geometry" />
        </mxCell>
        <mxCell id="RBFZopENzZqXc9jWvcYU-0" value="Spring Mixer Announced" style="rounded=1;whiteSpace=wrap;html=1;" vertex="1" parent="WIyWlLk6GJQsqaUBKTNV-1">
          <mxGeometry x="375" y="20" width="152.5" height="30" as="geometry" />
        </mxCell>
        <mxCell id="RBFZopENzZqXc9jWvcYU-5" value="Variables are Determined/Announced" style="rounded=1;whiteSpace=wrap;html=1;" vertex="1" parent="WIyWlLk6GJQsqaUBKTNV-1">
          <mxGeometry x="382.5" y="90" width="137.5" height="30" as="geometry" />
        </mxCell>
        <mxCell id="RBFZopENzZqXc9jWvcYU-11" value="" style="endArrow=none;dashed=1;html=1;dashPattern=1 3;strokeWidth=2;rounded=0;entryX=0;entryY=0.5;entryDx=0;entryDy=0;exitX=0.5;exitY=0;exitDx=0;exitDy=0;" edge="1" parent="WIyWlLk6GJQsqaUBKTNV-1" source="RBFZopENzZqXc9jWvcYU-12" target="RBFZopENzZqXc9jWvcYU-5">
          <mxGeometry width="50" height="50" relative="1" as="geometry">
            <mxPoint x="160" y="160" as="sourcePoint" />
            <mxPoint x="430" y="330" as="targetPoint" />
            <Array as="points">
              <mxPoint x="160" y="105" />
            </Array>
          </mxGeometry>
        </mxCell>
        <mxCell id="RBFZopENzZqXc9jWvcYU-20" value="Mixer Creation" style="edgeLabel;html=1;align=center;verticalAlign=middle;resizable=0;points=[];" vertex="1" connectable="0" parent="RBFZopENzZqXc9jWvcYU-11">
          <mxGeometry x="-0.06" y="-1" relative="1" as="geometry">
            <mxPoint as="offset" />
          </mxGeometry>
        </mxCell>
        <mxCell id="RBFZopENzZqXc9jWvcYU-17" value="" style="edgeStyle=orthogonalEdgeStyle;rounded=0;orthogonalLoop=1;jettySize=auto;html=1;" edge="1" parent="WIyWlLk6GJQsqaUBKTNV-1" source="RBFZopENzZqXc9jWvcYU-12" target="RBFZopENzZqXc9jWvcYU-16">
          <mxGeometry relative="1" as="geometry" />
        </mxCell>
        <mxCell id="RBFZopENzZqXc9jWvcYU-12" value="Variables" style="rounded=1;whiteSpace=wrap;html=1;" vertex="1" parent="WIyWlLk6GJQsqaUBKTNV-1">
          <mxGeometry x="100" y="120" width="110" height="20" as="geometry" />
        </mxCell>
        <mxCell id="RBFZopENzZqXc9jWvcYU-13" value="Start Date" style="ellipse;whiteSpace=wrap;html=1;aspect=fixed;" vertex="1" parent="WIyWlLk6GJQsqaUBKTNV-1">
          <mxGeometry x="40" y="170" width="60" height="60" as="geometry" />
        </mxCell>
        <mxCell id="RBFZopENzZqXc9jWvcYU-15" value="" style="endArrow=classic;html=1;rounded=0;exitX=0;exitY=1;exitDx=0;exitDy=0;" edge="1" parent="WIyWlLk6GJQsqaUBKTNV-1" source="RBFZopENzZqXc9jWvcYU-12" target="RBFZopENzZqXc9jWvcYU-13">
          <mxGeometry width="50" height="50" relative="1" as="geometry">
            <mxPoint x="380" y="380" as="sourcePoint" />
            <mxPoint x="430" y="330" as="targetPoint" />
          </mxGeometry>
        </mxCell>
        <mxCell id="RBFZopENzZqXc9jWvcYU-16" value="Comp Time" style="ellipse;whiteSpace=wrap;html=1;aspect=fixed;" vertex="1" parent="WIyWlLk6GJQsqaUBKTNV-1">
          <mxGeometry x="125" y="180" width="60" height="60" as="geometry" />
        </mxCell>
        <mxCell id="RBFZopENzZqXc9jWvcYU-18" value="Divisions" style="ellipse;whiteSpace=wrap;html=1;aspect=fixed;" vertex="1" parent="WIyWlLk6GJQsqaUBKTNV-1">
          <mxGeometry x="220" y="170" width="60" height="60" as="geometry" />
        </mxCell>
        <mxCell id="RBFZopENzZqXc9jWvcYU-19" value="" style="endArrow=classic;html=1;rounded=0;exitX=1;exitY=0.75;exitDx=0;exitDy=0;" edge="1" parent="WIyWlLk6GJQsqaUBKTNV-1" source="RBFZopENzZqXc9jWvcYU-12" target="RBFZopENzZqXc9jWvcYU-18">
          <mxGeometry width="50" height="50" relative="1" as="geometry">
            <mxPoint x="110" y="190" as="sourcePoint" />
            <mxPoint x="93" y="223" as="targetPoint" />
          </mxGeometry>
        </mxCell>
        <mxCell id="RBFZopENzZqXc9jWvcYU-21" value="" style="endArrow=classic;html=1;rounded=0;exitX=0.5;exitY=1;exitDx=0;exitDy=0;entryX=0.5;entryY=0;entryDx=0;entryDy=0;" edge="1" parent="WIyWlLk6GJQsqaUBKTNV-1" source="RBFZopENzZqXc9jWvcYU-5" target="RBFZopENzZqXc9jWvcYU-22">
          <mxGeometry width="50" height="50" relative="1" as="geometry">
            <mxPoint x="380" y="390" as="sourcePoint" />
            <mxPoint x="445" y="170" as="targetPoint" />
          </mxGeometry>
        </mxCell>
        <mxCell id="RBFZopENzZqXc9jWvcYU-22" value="User Sign up enabled" style="rounded=1;whiteSpace=wrap;html=1;" vertex="1" parent="WIyWlLk6GJQsqaUBKTNV-1">
          <mxGeometry x="393.75" y="170" width="115" height="30" as="geometry" />
        </mxCell>
        <mxCell id="RBFZopENzZqXc9jWvcYU-23" value="" style="endArrow=none;dashed=1;html=1;dashPattern=1 3;strokeWidth=2;rounded=0;entryX=1;entryY=0.5;entryDx=0;entryDy=0;exitX=0.5;exitY=0;exitDx=0;exitDy=0;" edge="1" parent="WIyWlLk6GJQsqaUBKTNV-1" source="RBFZopENzZqXc9jWvcYU-25" target="RBFZopENzZqXc9jWvcYU-22">
          <mxGeometry width="50" height="50" relative="1" as="geometry">
            <mxPoint x="690" y="220" as="sourcePoint" />
            <mxPoint x="430" y="340" as="targetPoint" />
            <Array as="points">
              <mxPoint x="640" y="185" />
            </Array>
          </mxGeometry>
        </mxCell>
        <mxCell id="RBFZopENzZqXc9jWvcYU-24" value="&lt;div&gt;Conditions&lt;/div&gt;" style="edgeLabel;html=1;align=center;verticalAlign=middle;resizable=0;points=[];" vertex="1" connectable="0" parent="RBFZopENzZqXc9jWvcYU-23">
          <mxGeometry x="-0.1164" relative="1" as="geometry">
            <mxPoint x="-39" as="offset" />
          </mxGeometry>
        </mxCell>
        <mxCell id="RBFZopENzZqXc9jWvcYU-41" style="edgeStyle=orthogonalEdgeStyle;rounded=0;orthogonalLoop=1;jettySize=auto;html=1;exitX=0.5;exitY=1;exitDx=0;exitDy=0;entryX=0.5;entryY=0;entryDx=0;entryDy=0;" edge="1" parent="WIyWlLk6GJQsqaUBKTNV-1" source="RBFZopENzZqXc9jWvcYU-25" target="RBFZopENzZqXc9jWvcYU-26">
          <mxGeometry relative="1" as="geometry" />
        </mxCell>
        <mxCell id="RBFZopENzZqXc9jWvcYU-25" value="Does User Have Account" style="rounded=1;whiteSpace=wrap;html=1;" vertex="1" parent="WIyWlLk6GJQsqaUBKTNV-1">
          <mxGeometry x="580" y="240" width="130" height="30" as="geometry" />
        </mxCell>
        <mxCell id="RBFZopENzZqXc9jWvcYU-47" style="edgeStyle=orthogonalEdgeStyle;rounded=0;orthogonalLoop=1;jettySize=auto;html=1;exitX=1;exitY=0.5;exitDx=0;exitDy=0;" edge="1" parent="WIyWlLk6GJQsqaUBKTNV-1" source="RBFZopENzZqXc9jWvcYU-26" target="RBFZopENzZqXc9jWvcYU-46">
          <mxGeometry relative="1" as="geometry" />
        </mxCell>
        <mxCell id="RBFZopENzZqXc9jWvcYU-26" value="Yes" style="rhombus;whiteSpace=wrap;html=1;" vertex="1" parent="WIyWlLk6GJQsqaUBKTNV-1">
          <mxGeometry x="610" y="300" width="70" height="50" as="geometry" />
        </mxCell>
        <mxCell id="RBFZopENzZqXc9jWvcYU-42" value="No" style="rhombus;whiteSpace=wrap;html=1;" vertex="1" parent="WIyWlLk6GJQsqaUBKTNV-1">
          <mxGeometry x="610" y="370" width="70" height="50" as="geometry" />
        </mxCell>
        <mxCell id="RBFZopENzZqXc9jWvcYU-43" value="" style="endArrow=classic;html=1;rounded=0;entryX=0.5;entryY=0;entryDx=0;entryDy=0;" edge="1" parent="WIyWlLk6GJQsqaUBKTNV-1" source="RBFZopENzZqXc9jWvcYU-26" target="RBFZopENzZqXc9jWvcYU-42">
          <mxGeometry width="50" height="50" relative="1" as="geometry">
            <mxPoint x="380" y="290" as="sourcePoint" />
            <mxPoint x="430" y="240" as="targetPoint" />
          </mxGeometry>
        </mxCell>
        <mxCell id="RBFZopENzZqXc9jWvcYU-48" style="edgeStyle=orthogonalEdgeStyle;rounded=0;orthogonalLoop=1;jettySize=auto;html=1;exitX=0.5;exitY=1;exitDx=0;exitDy=0;entryX=0.5;entryY=0;entryDx=0;entryDy=0;" edge="1" parent="WIyWlLk6GJQsqaUBKTNV-1" source="RBFZopENzZqXc9jWvcYU-44" target="RBFZopENzZqXc9jWvcYU-46">
          <mxGeometry relative="1" as="geometry" />
        </mxCell>
        <mxCell id="RBFZopENzZqXc9jWvcYU-44" value="User Makes CT Account" style="rounded=1;whiteSpace=wrap;html=1;" vertex="1" parent="WIyWlLk6GJQsqaUBKTNV-1">
          <mxGeometry x="720" y="377.5" width="100" height="35" as="geometry" />
        </mxCell>
        <mxCell id="RBFZopENzZqXc9jWvcYU-45" value="" style="endArrow=none;dashed=1;html=1;dashPattern=1 3;strokeWidth=2;rounded=0;entryX=0;entryY=0.5;entryDx=0;entryDy=0;exitX=1;exitY=0.5;exitDx=0;exitDy=0;" edge="1" parent="WIyWlLk6GJQsqaUBKTNV-1" source="RBFZopENzZqXc9jWvcYU-42" target="RBFZopENzZqXc9jWvcYU-44">
          <mxGeometry width="50" height="50" relative="1" as="geometry">
            <mxPoint x="380" y="290" as="sourcePoint" />
            <mxPoint x="430" y="240" as="targetPoint" />
          </mxGeometry>
        </mxCell>
        <mxCell id="RBFZopENzZqXc9jWvcYU-46" value="User Signs up for Comp" style="rounded=1;whiteSpace=wrap;html=1;" vertex="1" parent="WIyWlLk6GJQsqaUBKTNV-1">
          <mxGeometry x="650" y="460" width="110" height="30" as="geometry" />
        </mxCell>
        <mxCell id="RBFZopENzZqXc9jWvcYU-50" value="" style="endArrow=classic;html=1;rounded=0;exitX=0.5;exitY=1;exitDx=0;exitDy=0;entryX=0.5;entryY=0;entryDx=0;entryDy=0;" edge="1" parent="WIyWlLk6GJQsqaUBKTNV-1" source="RBFZopENzZqXc9jWvcYU-22" target="RBFZopENzZqXc9jWvcYU-53">
          <mxGeometry width="50" height="50" relative="1" as="geometry">
            <mxPoint x="380" y="290" as="sourcePoint" />
            <mxPoint x="440" y="250" as="targetPoint" />
          </mxGeometry>
        </mxCell>
        <mxCell id="RBFZopENzZqXc9jWvcYU-53" value="Users Self Seed" style="rounded=1;whiteSpace=wrap;html=1;" vertex="1" parent="WIyWlLk6GJQsqaUBKTNV-1">
          <mxGeometry x="396.25" y="260" width="112.5" height="30" as="geometry" />
        </mxCell>
        <mxCell id="RBFZopENzZqXc9jWvcYU-54" value="" style="endArrow=classic;html=1;rounded=0;exitX=0.5;exitY=1;exitDx=0;exitDy=0;" edge="1" parent="WIyWlLk6GJQsqaUBKTNV-1" source="RBFZopENzZqXc9jWvcYU-53">
          <mxGeometry width="50" height="50" relative="1" as="geometry">
            <mxPoint x="380" y="290" as="sourcePoint" />
            <mxPoint x="453" y="340" as="targetPoint" />
          </mxGeometry>
        </mxCell>
        <mxCell id="RBFZopENzZqXc9jWvcYU-55" value="Routes are Set" style="rounded=1;whiteSpace=wrap;html=1;" vertex="1" parent="WIyWlLk6GJQsqaUBKTNV-1">
          <mxGeometry x="393.75" y="340" width="120" height="30" as="geometry" />
        </mxCell>
        <mxCell id="RBFZopENzZqXc9jWvcYU-61" value="" style="endArrow=none;dashed=1;html=1;dashPattern=1 3;strokeWidth=2;rounded=0;entryX=0;entryY=0.5;entryDx=0;entryDy=0;exitX=0.5;exitY=0;exitDx=0;exitDy=0;" edge="1" parent="WIyWlLk6GJQsqaUBKTNV-1" source="RBFZopENzZqXc9jWvcYU-63" target="RBFZopENzZqXc9jWvcYU-55">
          <mxGeometry width="50" height="50" relative="1" as="geometry">
            <mxPoint x="220" y="410" as="sourcePoint" />
            <mxPoint x="430" y="340" as="targetPoint" />
            <Array as="points">
              <mxPoint x="195" y="355" />
            </Array>
          </mxGeometry>
        </mxCell>
        <mxCell id="RBFZopENzZqXc9jWvcYU-63" value="Hold data is entered into Mixer" style="rounded=1;whiteSpace=wrap;html=1;" vertex="1" parent="WIyWlLk6GJQsqaUBKTNV-1">
          <mxGeometry x="130" y="380" width="130" height="40" as="geometry" />
        </mxCell>
        <mxCell id="RBFZopENzZqXc9jWvcYU-64" value="Ropes" style="rounded=1;whiteSpace=wrap;html=1;arcSize=17;" vertex="1" parent="WIyWlLk6GJQsqaUBKTNV-1">
          <mxGeometry x="30" y="460" width="100" height="15" as="geometry" />
        </mxCell>
        <mxCell id="RBFZopENzZqXc9jWvcYU-66" value="boulders" style="rounded=1;whiteSpace=wrap;html=1;arcSize=17;" vertex="1" parent="WIyWlLk6GJQsqaUBKTNV-1">
          <mxGeometry x="145" y="460" width="100" height="15" as="geometry" />
        </mxCell>
        <mxCell id="RBFZopENzZqXc9jWvcYU-68" value="" style="endArrow=classic;html=1;rounded=0;exitX=0.5;exitY=1;exitDx=0;exitDy=0;entryX=0.5;entryY=0;entryDx=0;entryDy=0;" edge="1" parent="WIyWlLk6GJQsqaUBKTNV-1" source="RBFZopENzZqXc9jWvcYU-63" target="RBFZopENzZqXc9jWvcYU-64">
          <mxGeometry width="50" height="50" relative="1" as="geometry">
            <mxPoint x="380" y="290" as="sourcePoint" />
            <mxPoint x="430" y="240" as="targetPoint" />
            <Array as="points">
              <mxPoint x="195" y="440" />
              <mxPoint x="80" y="440" />
            </Array>
          </mxGeometry>
        </mxCell>
        <mxCell id="RBFZopENzZqXc9jWvcYU-69" value="" style="endArrow=classic;html=1;rounded=0;exitX=0.5;exitY=1;exitDx=0;exitDy=0;entryX=0.5;entryY=0;entryDx=0;entryDy=0;" edge="1" parent="WIyWlLk6GJQsqaUBKTNV-1" source="RBFZopENzZqXc9jWvcYU-63" target="RBFZopENzZqXc9jWvcYU-66">
          <mxGeometry width="50" height="50" relative="1" as="geometry">
            <mxPoint x="380" y="290" as="sourcePoint" />
            <mxPoint x="430" y="240" as="targetPoint" />
          </mxGeometry>
        </mxCell>
        <mxCell id="RBFZopENzZqXc9jWvcYU-70" value="Hold &amp;amp; Point Value" style="rounded=1;whiteSpace=wrap;html=1;" vertex="1" parent="WIyWlLk6GJQsqaUBKTNV-1">
          <mxGeometry x="27.5" y="500" width="105" height="20" as="geometry" />
        </mxCell>
        <mxCell id="RBFZopENzZqXc9jWvcYU-71" value="" style="endArrow=none;dashed=1;html=1;dashPattern=1 3;strokeWidth=2;rounded=0;entryX=0.5;entryY=1;entryDx=0;entryDy=0;exitX=0.5;exitY=0;exitDx=0;exitDy=0;" edge="1" parent="WIyWlLk6GJQsqaUBKTNV-1" source="RBFZopENzZqXc9jWvcYU-70" target="RBFZopENzZqXc9jWvcYU-64">
          <mxGeometry width="50" height="50" relative="1" as="geometry">
            <mxPoint x="380" y="390" as="sourcePoint" />
            <mxPoint x="430" y="340" as="targetPoint" />
          </mxGeometry>
        </mxCell>
        <mxCell id="RBFZopENzZqXc9jWvcYU-72" value="Point Value" style="rounded=1;whiteSpace=wrap;html=1;" vertex="1" parent="WIyWlLk6GJQsqaUBKTNV-1">
          <mxGeometry x="142.5" y="500" width="105" height="20" as="geometry" />
        </mxCell>
        <mxCell id="RBFZopENzZqXc9jWvcYU-73" value="" style="endArrow=none;dashed=1;html=1;dashPattern=1 3;strokeWidth=2;rounded=0;entryX=0.5;entryY=1;entryDx=0;entryDy=0;exitX=0.5;exitY=0;exitDx=0;exitDy=0;" edge="1" parent="WIyWlLk6GJQsqaUBKTNV-1" source="RBFZopENzZqXc9jWvcYU-72" target="RBFZopENzZqXc9jWvcYU-66">
          <mxGeometry width="50" height="50" relative="1" as="geometry">
            <mxPoint x="380" y="390" as="sourcePoint" />
            <mxPoint x="430" y="340" as="targetPoint" />
          </mxGeometry>
        </mxCell>
        <mxCell id="RBFZopENzZqXc9jWvcYU-76" value="" style="endArrow=none;dashed=1;html=1;dashPattern=1 3;strokeWidth=2;rounded=0;entryX=0.5;entryY=1;entryDx=0;entryDy=0;" edge="1" parent="WIyWlLk6GJQsqaUBKTNV-1" target="RBFZopENzZqXc9jWvcYU-70">
          <mxGeometry width="50" height="50" relative="1" as="geometry">
            <mxPoint x="80" y="550" as="sourcePoint" />
            <mxPoint x="430" y="340" as="targetPoint" />
          </mxGeometry>
        </mxCell>
        <mxCell id="RBFZopENzZqXc9jWvcYU-89" style="edgeStyle=orthogonalEdgeStyle;rounded=0;orthogonalLoop=1;jettySize=auto;html=1;exitX=0;exitY=0.5;exitDx=0;exitDy=0;entryX=1;entryY=0.5;entryDx=0;entryDy=0;" edge="1" parent="WIyWlLk6GJQsqaUBKTNV-1" source="RBFZopENzZqXc9jWvcYU-77" target="RBFZopENzZqXc9jWvcYU-87">
          <mxGeometry relative="1" as="geometry" />
        </mxCell>
        <mxCell id="RBFZopENzZqXc9jWvcYU-77" value="Comp Day" style="rounded=1;whiteSpace=wrap;html=1;" vertex="1" parent="WIyWlLk6GJQsqaUBKTNV-1">
          <mxGeometry x="390" y="650" width="137.5" height="30" as="geometry" />
        </mxCell>
        <mxCell id="RBFZopENzZqXc9jWvcYU-78" value="Hold Map Images" style="rounded=1;whiteSpace=wrap;html=1;" vertex="1" parent="WIyWlLk6GJQsqaUBKTNV-1">
          <mxGeometry x="30" y="550" width="105" height="20" as="geometry" />
        </mxCell>
        <mxCell id="RBFZopENzZqXc9jWvcYU-80" value="Rules" style="ellipse;whiteSpace=wrap;html=1;aspect=fixed;" vertex="1" parent="WIyWlLk6GJQsqaUBKTNV-1">
          <mxGeometry x="27.5" y="40" width="60" height="60" as="geometry" />
        </mxCell>
        <mxCell id="RBFZopENzZqXc9jWvcYU-82" value="" style="endArrow=classic;html=1;rounded=0;entryX=1;entryY=1;entryDx=0;entryDy=0;exitX=0;exitY=0;exitDx=0;exitDy=0;" edge="1" parent="WIyWlLk6GJQsqaUBKTNV-1" source="RBFZopENzZqXc9jWvcYU-12" target="RBFZopENzZqXc9jWvcYU-80">
          <mxGeometry width="50" height="50" relative="1" as="geometry">
            <mxPoint x="380" y="490" as="sourcePoint" />
            <mxPoint x="430" y="440" as="targetPoint" />
          </mxGeometry>
        </mxCell>
        <mxCell id="RBFZopENzZqXc9jWvcYU-83" value="" style="endArrow=classic;html=1;rounded=0;entryX=0.5;entryY=0;entryDx=0;entryDy=0;exitX=0.5;exitY=1;exitDx=0;exitDy=0;" edge="1" parent="WIyWlLk6GJQsqaUBKTNV-1" source="RBFZopENzZqXc9jWvcYU-55" target="RBFZopENzZqXc9jWvcYU-77">
          <mxGeometry width="50" height="50" relative="1" as="geometry">
            <mxPoint x="380" y="490" as="sourcePoint" />
            <mxPoint x="430" y="440" as="targetPoint" />
          </mxGeometry>
        </mxCell>
        <mxCell id="RBFZopENzZqXc9jWvcYU-93" style="edgeStyle=orthogonalEdgeStyle;rounded=0;orthogonalLoop=1;jettySize=auto;html=1;exitX=0;exitY=0.5;exitDx=0;exitDy=0;entryX=0;entryY=0.5;entryDx=0;entryDy=0;" edge="1" parent="WIyWlLk6GJQsqaUBKTNV-1" source="RBFZopENzZqXc9jWvcYU-85" target="RBFZopENzZqXc9jWvcYU-92">
          <mxGeometry relative="1" as="geometry">
            <Array as="points">
              <mxPoint x="20" y="665" />
              <mxPoint x="20" y="733" />
              <mxPoint x="80" y="733" />
            </Array>
          </mxGeometry>
        </mxCell>
        <mxCell id="RBFZopENzZqXc9jWvcYU-85" value="Comp Officially Start By Admin" style="rounded=1;whiteSpace=wrap;html=1;" vertex="1" parent="WIyWlLk6GJQsqaUBKTNV-1">
          <mxGeometry x="65" y="646.25" width="120" height="37.5" as="geometry" />
        </mxCell>
        <mxCell id="RBFZopENzZqXc9jWvcYU-90" style="edgeStyle=orthogonalEdgeStyle;rounded=0;orthogonalLoop=1;jettySize=auto;html=1;exitX=0;exitY=0.5;exitDx=0;exitDy=0;entryX=1;entryY=0.5;entryDx=0;entryDy=0;" edge="1" parent="WIyWlLk6GJQsqaUBKTNV-1" source="RBFZopENzZqXc9jWvcYU-87" target="RBFZopENzZqXc9jWvcYU-85">
          <mxGeometry relative="1" as="geometry" />
        </mxCell>
        <mxCell id="RBFZopENzZqXc9jWvcYU-87" value="Users Can &quot;Ready Up&quot; and sit in waiting room screen" style="rounded=1;whiteSpace=wrap;html=1;" vertex="1" parent="WIyWlLk6GJQsqaUBKTNV-1">
          <mxGeometry x="230" y="635" width="120" height="60" as="geometry" />
        </mxCell>
        <mxCell id="RBFZopENzZqXc9jWvcYU-105" style="edgeStyle=orthogonalEdgeStyle;rounded=0;orthogonalLoop=1;jettySize=auto;html=1;exitX=1;exitY=0.5;exitDx=0;exitDy=0;entryX=0;entryY=0.5;entryDx=0;entryDy=0;" edge="1" parent="WIyWlLk6GJQsqaUBKTNV-1" source="RBFZopENzZqXc9jWvcYU-92" target="RBFZopENzZqXc9jWvcYU-104">
          <mxGeometry relative="1" as="geometry" />
        </mxCell>
        <mxCell id="RBFZopENzZqXc9jWvcYU-92" value="Users Can start climbing and tracking their scores" style="rounded=1;whiteSpace=wrap;html=1;" vertex="1" parent="WIyWlLk6GJQsqaUBKTNV-1">
          <mxGeometry x="65" y="710" width="130" height="45" as="geometry" />
        </mxCell>
        <mxCell id="RBFZopENzZqXc9jWvcYU-96" value="Scores are kept local to ones device until the submit scores button is pressed or time is out" style="rounded=1;whiteSpace=wrap;html=1;" vertex="1" parent="WIyWlLk6GJQsqaUBKTNV-1">
          <mxGeometry x="45" y="780" width="170" height="70" as="geometry" />
        </mxCell>
        <mxCell id="RBFZopENzZqXc9jWvcYU-99" value="" style="endArrow=none;dashed=1;html=1;dashPattern=1 3;strokeWidth=2;rounded=0;entryX=0.5;entryY=1;entryDx=0;entryDy=0;exitX=0.5;exitY=0;exitDx=0;exitDy=0;" edge="1" parent="WIyWlLk6GJQsqaUBKTNV-1" source="RBFZopENzZqXc9jWvcYU-96" target="RBFZopENzZqXc9jWvcYU-92">
          <mxGeometry width="50" height="50" relative="1" as="geometry">
            <mxPoint x="380" y="590" as="sourcePoint" />
            <mxPoint x="430" y="540" as="targetPoint" />
          </mxGeometry>
        </mxCell>
        <mxCell id="RBFZopENzZqXc9jWvcYU-108" style="edgeStyle=orthogonalEdgeStyle;rounded=0;orthogonalLoop=1;jettySize=auto;html=1;exitX=1;exitY=0.5;exitDx=0;exitDy=0;entryX=0;entryY=0.5;entryDx=0;entryDy=0;" edge="1" parent="WIyWlLk6GJQsqaUBKTNV-1" source="RBFZopENzZqXc9jWvcYU-104" target="RBFZopENzZqXc9jWvcYU-107">
          <mxGeometry relative="1" as="geometry" />
        </mxCell>
        <mxCell id="RBFZopENzZqXc9jWvcYU-104" value="Comp Ends" style="rounded=1;whiteSpace=wrap;html=1;" vertex="1" parent="WIyWlLk6GJQsqaUBKTNV-1">
          <mxGeometry x="247.5" y="717.5" width="110" height="30" as="geometry" />
        </mxCell>
        <mxCell id="RBFZopENzZqXc9jWvcYU-110" style="edgeStyle=orthogonalEdgeStyle;rounded=0;orthogonalLoop=1;jettySize=auto;html=1;exitX=1;exitY=0.5;exitDx=0;exitDy=0;entryX=0;entryY=0.5;entryDx=0;entryDy=0;" edge="1" parent="WIyWlLk6GJQsqaUBKTNV-1" source="RBFZopENzZqXc9jWvcYU-107" target="RBFZopENzZqXc9jWvcYU-109">
          <mxGeometry relative="1" as="geometry" />
        </mxCell>
        <mxCell id="RBFZopENzZqXc9jWvcYU-107" value="Users sit in another waiting room waiting for scores to be announced" style="rounded=1;whiteSpace=wrap;html=1;" vertex="1" parent="WIyWlLk6GJQsqaUBKTNV-1">
          <mxGeometry x="390" y="706.25" width="170" height="52.5" as="geometry" />
        </mxCell>
        <mxCell id="RBFZopENzZqXc9jWvcYU-113" style="edgeStyle=orthogonalEdgeStyle;rounded=0;orthogonalLoop=1;jettySize=auto;html=1;exitX=1;exitY=0.5;exitDx=0;exitDy=0;entryX=1;entryY=0.5;entryDx=0;entryDy=0;" edge="1" parent="WIyWlLk6GJQsqaUBKTNV-1" source="RBFZopENzZqXc9jWvcYU-109" target="RBFZopENzZqXc9jWvcYU-112">
          <mxGeometry relative="1" as="geometry">
            <Array as="points">
              <mxPoint x="790" y="733" />
              <mxPoint x="790" y="805" />
            </Array>
          </mxGeometry>
        </mxCell>
        <mxCell id="RBFZopENzZqXc9jWvcYU-109" value="Manual Entry of Scores for users that did not use app" style="rounded=1;whiteSpace=wrap;html=1;" vertex="1" parent="WIyWlLk6GJQsqaUBKTNV-1">
          <mxGeometry x="610" y="711.25" width="150" height="42.5" as="geometry" />
        </mxCell>
        <mxCell id="RBFZopENzZqXc9jWvcYU-118" style="edgeStyle=orthogonalEdgeStyle;rounded=0;orthogonalLoop=1;jettySize=auto;html=1;exitX=0;exitY=0.5;exitDx=0;exitDy=0;entryX=1;entryY=0.5;entryDx=0;entryDy=0;" edge="1" parent="WIyWlLk6GJQsqaUBKTNV-1" source="RBFZopENzZqXc9jWvcYU-112" target="RBFZopENzZqXc9jWvcYU-117">
          <mxGeometry relative="1" as="geometry" />
        </mxCell>
        <mxCell id="RBFZopENzZqXc9jWvcYU-112" value="Scores are Released/Announced" style="rounded=1;whiteSpace=wrap;html=1;" vertex="1" parent="WIyWlLk6GJQsqaUBKTNV-1">
          <mxGeometry x="610" y="780" width="150" height="50" as="geometry" />
        </mxCell>
        <mxCell id="RBFZopENzZqXc9jWvcYU-115" value="Users can now see score data" style="rounded=1;whiteSpace=wrap;html=1;" vertex="1" parent="WIyWlLk6GJQsqaUBKTNV-1">
          <mxGeometry x="617.5" y="870" width="135" height="40" as="geometry" />
        </mxCell>
        <mxCell id="RBFZopENzZqXc9jWvcYU-116" value="" style="endArrow=none;dashed=1;html=1;dashPattern=1 3;strokeWidth=2;rounded=0;entryX=0.5;entryY=1;entryDx=0;entryDy=0;exitX=0.5;exitY=0;exitDx=0;exitDy=0;" edge="1" parent="WIyWlLk6GJQsqaUBKTNV-1" source="RBFZopENzZqXc9jWvcYU-115" target="RBFZopENzZqXc9jWvcYU-112">
          <mxGeometry width="50" height="50" relative="1" as="geometry">
            <mxPoint x="380" y="790" as="sourcePoint" />
            <mxPoint x="430" y="740" as="targetPoint" />
          </mxGeometry>
        </mxCell>
        <mxCell id="RBFZopENzZqXc9jWvcYU-117" value="Comp End" style="rounded=1;whiteSpace=wrap;html=1;" vertex="1" parent="WIyWlLk6GJQsqaUBKTNV-1">
          <mxGeometry x="393.75" y="790" width="130" height="30" as="geometry" />
        </mxCell>
        <mxCell id="RBFZopENzZqXc9jWvcYU-119" value="This will show who actually showed up for the comp" style="rounded=1;whiteSpace=wrap;html=1;" vertex="1" parent="WIyWlLk6GJQsqaUBKTNV-1">
          <mxGeometry x="220" y="550" width="140" height="50" as="geometry" />
        </mxCell>
        <mxCell id="RBFZopENzZqXc9jWvcYU-120" value="" style="endArrow=none;dashed=1;html=1;dashPattern=1 3;strokeWidth=2;rounded=0;entryX=0.5;entryY=1;entryDx=0;entryDy=0;exitX=0.5;exitY=0;exitDx=0;exitDy=0;" edge="1" parent="WIyWlLk6GJQsqaUBKTNV-1" source="RBFZopENzZqXc9jWvcYU-87" target="RBFZopENzZqXc9jWvcYU-119">
          <mxGeometry width="50" height="50" relative="1" as="geometry">
            <mxPoint x="380" y="690" as="sourcePoint" />
            <mxPoint x="430" y="640" as="targetPoint" />
          </mxGeometry>
        </mxCell>
        <mxCell id="RBFZopENzZqXc9jWvcYU-121" value="Score data will be tied to users account if available" style="rounded=1;whiteSpace=wrap;html=1;" vertex="1" parent="WIyWlLk6GJQsqaUBKTNV-1">
          <mxGeometry x="390" y="930" width="148.75" height="40" as="geometry" />
        </mxCell>
        <mxCell id="RBFZopENzZqXc9jWvcYU-122" value="" style="endArrow=classic;html=1;rounded=0;exitX=0.5;exitY=1;exitDx=0;exitDy=0;entryX=0.462;entryY=-0.08;entryDx=0;entryDy=0;entryPerimeter=0;" edge="1" parent="WIyWlLk6GJQsqaUBKTNV-1" source="RBFZopENzZqXc9jWvcYU-117" target="RBFZopENzZqXc9jWvcYU-121">
          <mxGeometry width="50" height="50" relative="1" as="geometry">
            <mxPoint x="380" y="890" as="sourcePoint" />
            <mxPoint x="430" y="840" as="targetPoint" />
          </mxGeometry>
        </mxCell>
      </root>
    </mxGraphModel>
  </diagram>
</mxfile>
